<svg xmlns="http://www.w3.org/2000/svg" viewBox="0 0 5696.4 388.5"><title>Marvin Cespedes</title><path d="M507.2 20.2v348.2c0 6.9-3.5 10.6-10.5 10.6H381.2c-6.9 0-10.6-3.7-10.6-10.6l6.2-238-32.6 157.8s-12.7 55.9-20.6 82.3c-1.6 5.9-5.8 8.5-11.7 8.5H195.8c-5.8 0-10-2.6-11.5-8.5-7.9-26.4-21.1-82.3-21.1-82.3l-32.3-152 7.4 232.2c0 7.5-3.1 10.6-10.1 10.6H10.6C3.7 379 0 375.3 0 368.4V20.2C0 13.4 3.7 9.6 10.6 9.6h191.6c6.3 0 10 3.8 11.6 9.5l13.7 61.8 21.7 141 4.7 45.9 4.3-45.9 21.6-141.2 13.6-61.8c1.6-5.7 5.3-9.3 11.7-9.3h191.6c7 0 10.5 3.6 10.5 10.4zM960.8 379H819.3c-6.4 0-10.1-3.7-11.6-9.5L796 318.9h-96.1l-11.5 51.2c-1.5 5.8-5.3 9.4-11.6 9.4l-142.1-.5c-7.3 0-11-4.7-8.4-11.5l109.3-349c1.6-6.2 6.3-9 12.2-9h199.9c5.8 0 10.6 2.6 12.1 9l109.8 348.8c2.2 7-1.5 11.7-8.8 11.7zM776.3 232.9l-24.8-109.2-3.8-30.1-4.2 30.1-24.8 109.2zM1364 379h-134c-5.8 0-10.1-2-12.8-7.8l-50.6-100.4h-31v97.8c0 6.7-3.7 10.4-10.7 10.4H998.3c-6.8 0-10.5-3.7-10.5-10.6V20.2c0-6.8 3.7-10.6 10.5-10.6h183.9c147.8 0 187.4 38.1 187.4 127.3 0 50.7-13.7 91.3-61.8 114l63.9 116.1c3.6 7.5.5 12.1-7.6 12.1zm-140.9-234.5c0-16.9-7.4-31.6-42.8-31.6h-44.9v67.2h45.1c35.2 0 42.6-16.8 42.6-35.2zm577.5-123.4L1694.5 370a11.3 11.3 0 0 1-11.6 9H1488c-6.2 0-9.9-3.1-12.1-9L1370.3 21.1c-2.6-6.8 1.1-11.6 8.6-11.6h141.3a11 11 0 0 1 11.8 9.4l38.9 174.2 14.3 86.2 14.3-86.2 39.1-174.2c1.6-5.7 5.3-9.3 11.5-9.3h141.6c7.3 0 10.9 4.7 8.9 11.5zM1978 379h-141.4c-6.8 0-10.6-3.7-10.6-10.6V20.2c0-6.8 3.8-10.6 10.6-10.6H1978c6.9 0 10.6 3.8 10.6 10.6v348.4c0 6.8-3.7 10.5-10.6 10.5zm470.3-358.8v348.2c0 6.9-3.7 10.6-10.5 10.6h-174.2c-5.8 0-9.5-2.6-11.7-8.4l-77-215.8 6.8 72.7 3.8 140.9c0 7.5-3.1 10.6-10.1 10.6h-126c-6.9 0-10.5-3.7-10.5-10.6V20.2c0-6.8 3.6-10.6 10.5-10.6H2223a11.9 11.9 0 0 1 12.1 8.6l78.3 218.4-7-76.5-2.6-139.8c0-6.9 3.7-10.7 10.5-10.7h123.6c6.8 0 10.6 3.8 10.6 10.6zm295.6 128.1c-3.7-31.7-15.3-40.5-47.5-40.5-41.1 0-52.8 24.8-52.8 85.3 0 66.7 11.7 86.2 52.8 86.2 36.5 0 45.4-10.1 48.6-48.1.5-6.8 4.2-10.6 10.6-10.6h134c7 0 10.5 3.8 10.1 11.2-5.8 107.1-54.4 154.6-208.6 154.6-160.5 0-204.9-81.8-204.9-193.3 0-108.2 44.4-190.5 204.9-190.5s203.3 40.1 208.6 145.2c.4 7.5-3.1 11-10.1 11H2755q-9.5 0-11.1-10.5zm332.1-41.6v42.7h181.7c6.8 0 10.6 3.7 10.6 10.5v68.6c0 6.9-3.8 10.6-10.6 10.6H3076V282h181.7c6.8 0 10.6 3.5 10.6 10.5v76.1c0 6.8-3.8 10.5-10.6 10.5h-316.3c-7 0-10.5-3.7-10.5-10.5V20c0-6.8 3.5-10.5 10.5-10.5h316c6.8 0 10.5 3.7 10.5 10.5v76.1c0 6.8-3.7 10.6-10.5 10.6zm421.3 281.8c-154.7 0-194.3-35.3-197.5-124.1 0-6.8 3.7-10.5 10.5-10.5h131.5c6.2 0 10 3.7 10.6 10.5 2.6 21.7 12.1 27.5 47.5 27.5s41.1-8.4 41.1-24.2c0-56.5-239.7 13.2-239.7-148.5 0-73.9 41.8-119.2 197-119.2 153.1 0 189 35.4 191.6 121.9 0 7-3.7 10.5-10.5 10.5h-130.9c-6.4 0-10.1-3.5-10.6-10.5-2.6-22.1-10.5-27.3-42.2-27.3-34.9 0-41.3 7.3-41.3 23.7 0 57 239.1-12.7 239.1 148.7.2 84.5-41.6 121.5-196.2 121.5zm606.4-250.3c0 95.2-51.2 132.6-188.9 132.6h-39.5v97.8c0 6.7-3.7 10.4-10.5 10.4h-132c-6.8 0-10.6-3.7-10.6-10.6V20.2c0-6.8 3.8-10.6 10.6-10.6h182.1c137.9 0 189 28.6 189 128.9zm-146.1 6.5c0-17.1-7.4-31.7-42.7-31.7h-39.6v66.9h39.6c35.3 0 42.7-16.7 42.7-35.2zm316.7-38v42.7H4456c6.8 0 10.6 3.7 10.6 10.5v68.6c0 6.9-3.8 10.6-10.6 10.6h-181.7V282H4456c6.8 0 10.6 3.5 10.6 10.5v76.1c0 6.8-3.8 10.5-10.6 10.5h-316.4c-6.9 0-10.4-3.7-10.4-10.5V20c0-6.8 3.5-10.5 10.4-10.5H4456c6.8 0 10.6 3.7 10.6 10.5v76.1c0 6.8-3.8 10.6-10.6 10.6zm627.1 85.5c0 121.4-59.1 186.8-207.5 186.8h-171.4c-7 0-10.8-3.7-10.8-10.6V20.2c0-6.8 3.8-10.6 10.6-10.6H4694c148.3 0 207.4 55.9 207.4 182.8zm-146.2 0c0-50.8-15.4-80.7-59-80.7h-36.5v165.6h36.3c43.8 0 59-34.3 59-84.9zm323.6-85.5v42.7h181.6c6.8 0 10.6 3.7 10.6 10.5v68.6c0 6.9-3.8 10.6-10.6 10.6h-181.6V282h181.6c6.8 0 10.6 3.5 10.6 10.5v76.1c0 6.8-3.8 10.5-10.6 10.5h-316.3c-6.8 0-10.5-3.7-10.5-10.5V20c0-6.8 3.7-10.5 10.5-10.5h316.3c6.8 0 10.6 3.7 10.6 10.5v76.1c0 6.8-3.8 10.6-10.6 10.6zM5500 388.5c-154.7 0-194.1-35.3-197.4-124.1 0-6.8 3.6-10.5 10.6-10.5h131.3c6.4 0 10.1 3.7 10.6 10.5 2.6 21.7 12.1 27.5 47.5 27.5s41.2-8.4 41.2-24.2c0-56.5-239.6 13.2-239.6-148.5C5304.2 45.3 5346 0 5501.1 0c153.1 0 188.9 35.4 191.6 121.9 0 7-3.8 10.5-10.6 10.5h-130.9c-6.2 0-10.1-3.5-10.5-10.5-2.7-22.1-10.6-27.3-42.3-27.3-34.8 0-41.1 7.3-41.1 23.7 0 57 239.1-12.7 239.1 148.7 0 84.5-41.8 121.5-196.4 121.5z"/></svg>