<svg xmlns="http://www.w3.org/2000/svg" viewBox="0 0 528.3 512.9" aria-hidden="true"><title>Marvin Cespedes Logo Icon</title><path d="M479.9 147.3l12-23.8-27.2-.9 9-25-27 2.3 5.6-25.9-26.7 5.5 2.5-26.3-25.8 8.7-1-26.4L376.8 47l-4.3-26-22.9 14.5-7.5-25.3-21 17.1-10.6-24.2-18.7 19.5L278.1 0l-16 21.5L245.6.6 232.3 24l-19-18.7-10.2 24.6L182 13.5l-7.1 25.6-23.2-13.6-3.8 26.2L123.1 41l-.4 26.5-26-7.7L99.6 86l-26.8-4.4 6.3 25.6-27.2-1.2 9.4 24.7-27.1 2L46.6 156 20 161.2 35.3 183l-26 8.3 18 19.6-24.6 11.4 20.4 17.3L0 253.8l22.4 14.6-21.1 17 24.1 11.8-18.8 19.2 25.5 9-16.4 21.2 26.5 5.8-13.5 23 27 2.6-10.5 24.5 27.2-.7-7.3 25.5 26.9-4-4 26.2 26.2-7-.8 26.3 25.3-10.2 2.6 26.3 23.7-13.1 6 25.7 22-15.8 9.1 24.8 19.9-18.3 12.2 23.4 17.4-20.5 15 21.8 14.7-22.4 17.8 19.8 11.8-24L331 504l8.7-25.2 22.2 15 5.5-26 24 12.2 2-26.4 25.5 9.2-1.3-26.4 26.4 6.1-4.6-26 27 2.9-7.8-25.3 27.2-.3-11-24 27-3.7-14-22.5 26.4-6.8-16.6-20.7 25.3-10-19.2-18.4 23.9-12.8-21.4-16 22.1-15.6L505 230l20-18.1-24.9-10.4 17.6-20.3-26-7.4 15-22.2zm3.6 58.2C511 322.8 435 440.8 313.9 468.9S72.1 424.7 44.5 307.4 92.8 72 214.1 43.9s241.8 44.2 269.4 161.6z"/><path d="M81.3 244l.3-4.8-9.8 1.5-2.3.2 2.3.4 9.5 2.7zm3.1-40.6c.9-2.8-.4-3.8-1.9-4.2s-2.8-.1-3.7 2.7l-1 3.5 5.5 1.6zM354.8 91.9c.7-1.2.8-2.7-1.9-4l-3-1.5-2.7 5 3 1.6c2.6 1.3 3.9.3 4.6-1.1zm-171.2-6.7l-1.2-2 .7 2.2 2 9.4 4.5-2zM408.7 141c3.3-2.8 4.5-5.5 2-8.3l-1.9-2.2-11.1 9 2 2.3c2.4 2.8 5.6 2 9-.8zm-58.4 76.4c-52.6-92-125-66.1-125.2-66s-70 22.3-55 126.5 93.5 88.6 125.6 78.1 107.3-46.3 54.6-138.6zm-65.8-9.6a5.8 5.8 0 0 1 7.9 2.2 4.4 4.4 0 0 1 .7 1.9 5.6 5.6 0 0 1-2.9 5.6 5.9 5.9 0 0 1-7.9-2.3 6.4 6.4 0 0 1-.6-1.8 5.5 5.5 0 0 1 2.8-5.6zm-12.8-29.3c-4.2-1.5-12.7-5.4-15.6-3.3 2.3 1.1 9 13.3-.3 22.2-5.3-6.4-14.8-8.1-18-8.5 3.7-1 12.3-2.3 17.4 2.5 5.8-8.1-3.2-17-7.4-17.1 0 0 7-8.2 17.5-1.8 7.6 4.7-4-14.4-24.3-7.4 28-15 34.7 14.8 30.7 13.4zm-9 46l-2 9.3-2 9.4-7.5-6.3-7.4-6.3 9.5-3zm-44.2 16.4a5.8 5.8 0 0 1-7.9-2.2 4.8 4.8 0 0 1-.7-2 5.5 5.5 0 0 1 2.9-5.5 5.8 5.8 0 0 1 7.9 2.2 4.4 4.4 0 0 1 .7 1.9 5.6 5.6 0 0 1-2.9 5.6zm76.1 107.3c-23.7 8.2-45 9-51.6-10.2s2.2-54.2 26.1-62 53.8 14.6 60.4 33.8-11 30.1-34.9 38.4z"/><path d="M178 111.4l9-4a1 1 0 0 0 .6-1.2l-1-4.6 7.3-3.3 3 3.7a1.1 1.1 0 0 0 1.1.3l9.2-4.1c.6-.3.7-.8.2-1.2l-20.2-22.5a1.1 1.1 0 0 0-1.2-.2l-12.9 5.8a1 1 0 0 0-.6 1.1l4.3 29.7c.1.6.5.8 1.1.5zM136.7 143a.8.8 0 0 0 1.1.2l.2-.2 6.3-5.7a.8.8 0 0 0 .1-1.1h-.1l-9-9-4.4-4.1 18 9.3a1.1 1.1 0 0 0 1.2-.2l9.3-8.3a.8.8 0 0 0 .2-1.1l-.2-.2-20-21a.8.8 0 0 0-1.1-.2l-.2.2-6.2 5.7a.8.8 0 0 0-.2 1.1.1.1 0 0 1 .1.1l8.9 9 4.8 4.3-18.2-9.4a.9.9 0 0 0-1.3.2l-9.2 8.3a.8.8 0 0 0-.1 1.1h.1zm106-51.8c11-1.5 14.7-5.8 14-14.6a.8.8 0 0 0-.8-.8h-.2l-9.1 1.2a.8.8 0 0 0-.8.8v.2c.1 3.2-.5 4.2-3.7 4.6s-4.9-1.1-5.5-6.6.2-7.2 3.7-7.7 4 .3 4.6 3a.8.8 0 0 0 1 .7l9.2-1.2a.8.8 0 0 0 .8-.8v-.2c-1.5-8.5-5.5-11.4-17.1-9.9s-14.4 8.7-13.3 17.6 5.7 15.1 17.2 13.7zm-118.2 67.4a.8.8 0 0 0 1.1.1l.2-.2 6-7.6a.8.8 0 0 0 0-1.1.2.2 0 0 0-.2-.2l-23.4-17.2a.8.8 0 0 0-1.1-.1l-.2.2-6 7.6a.8.8 0 0 0 .1 1.1.1.1 0 0 0 .1.1zm-31.7 88.7L88 246l.6-7.8 4.8-.7a.9.9 0 0 0 .9-.9l.8-9.7c0-.6-.3-1-1-.8L64 232.6a1 1 0 0 0-.8 1L62 247.1a1 1 0 0 0 .7 1l28.9 10.5a.7.7 0 0 0 .9-.3.6.6 0 0 0 .1-.4l.9-9.7a1 1 0 0 0-.7-1zm-1.2 16.5l-29.2 4.9a.8.8 0 0 0-.8.8v.2L64 283a1 1 0 0 0 1 .8l5.4.2 12.2-.2 3.7-.2-3.6 1-11.6 3.8-5 2a1 1 0 0 0-.6 1.1l2.1 13.4a.7.7 0 0 0 .9.7h.1l29.3-5a.7.7 0 0 0 .7-.9l-1.3-8c-.1-.6-.4-.8-1-.7l-19.4 3.8 13.2-5.3s3.8-1.5 5.7-2.5a.9.9 0 0 0 .5-1l-1.2-7.8a1.1 1.1 0 0 0-.9-.8L88 277l-14.6-.7 19.9-2.8a.7.7 0 0 0 .7-.9l-1.3-8a.8.8 0 0 0-.8-.8h-.3zm4.1-42.8a.7.7 0 0 0 1-.4v-.2l2.5-8.1a.7.7 0 0 0-.4-1h-.2l-8-2.2.8-2.7 9.3-1.6a1 1 0 0 0 1-.8l2.6-8.7c.2-.6-.1-1-.8-.9l-10.8 2c-1-3.9-3.8-5.8-8-7-7.2-2-11.3.3-14.3 10.2L66.6 212a.7.7 0 0 0 .4 1h.3zm13.5-37.1a1 1 0 0 0 1.1-.5l6.4-11.7a.9.9 0 0 0-.2-1.1L94.4 150a.8.8 0 0 0-1-.1l-.2.3-4.8 8.6a1 1 0 0 0 .3 1.2l10 8.3 7 5.3-8.5-2.7-12.7-3.4a1 1 0 0 0-1.2.5l-4.7 8.6a.7.7 0 0 0 .3.9h.2zm156.4-95l22.7 1.5a.8.8 0 0 0 1-.6v-.2l.6-6.1a.8.8 0 0 0-.6-1h-.3l-13.4-.9.3-3.6 13.4 1a.8.8 0 0 0 1-.6v-.3l.5-5.6a.8.8 0 0 0-.6-1h-.2l-13.4-.9.3-3.6 13.4 1a.8.8 0 0 0 1-.6v-.3l.5-6.1a.8.8 0 0 0-.6-1h-.2l-22.7-1.5a.8.8 0 0 0-1 .6v.2l-2.5 28.6a.8.8 0 0 0 .6 1zm167.7 60.8l-26.1 13.8a.8.8 0 0 0-.5 1v.2l10.8 19.4a.8.8 0 0 0 1 .5h.2l5.6-3a.8.8 0 0 0 .5-1v-.2l-6.3-11.5 3.2-1.7 6.4 11.4a.8.8 0 0 0 1 .5h.2l5.1-2.7a.8.8 0 0 0 .5-1v-.4l-6.3-11.5 3.2-1.7 6.4 11.4a.8.8 0 0 0 1 .5h.2l5.6-3a.8.8 0 0 0 .5-1v-.2l-11-19.5a.8.8 0 0 0-1.1-.4zm8.6 34.6c-13.2 4-2.2 19.2-6.8 20.6-1.4.4-2.2.1-3-2.6s-.7-3.6 1.1-4.4a.9.9 0 0 0 .6-1.1l-2.6-8.5a.8.8 0 0 0-1-.6h-.2c-7.1 2.4-9 6.3-5.7 16.6s7.2 12.8 14 10.7c13.1-4 2.1-19.3 6.8-20.7 1.4-.4 2.2-.1 3 2.6s.5 3.3-1.3 4a1 1 0 0 0-.7.9v.2l2.7 8.5a.8.8 0 0 0 1 .6c7-2.4 9-6 5.8-16.3s-7.8-12.4-13.8-10.6zm-26.6-35.7c8.2-6.8 8.7-13.5 1.9-21.3l-8-9.3a.8.8 0 0 0-1.1-.3l-.2.2-22.7 18.6a.8.8 0 0 0-.3 1.1h.1l8 9.3c6.8 7.9 14.3 8 22.3 1.6zm-31.9-23.3l-10.5-8.1 2.3-2.9 10.5 8.1a.8.8 0 0 0 1.1.1l.2-.2 3.6-4.5a.8.8 0 0 0 0-1.1.1.1 0 0 0-.1-.1l-10.5-8 2.3-2.9 10.5 8a.8.8 0 0 0 1.1.2l.2-.2 4-5a.8.8 0 0 0-.2-1.1l-17.7-13.8a.8.8 0 0 0-1.1 0 .2.2 0 0 0-.2.2l-18.6 22.5a.8.8 0 0 0 0 1.1.2.2 0 0 0 .2.2l17.7 13.7a.8.8 0 0 0 1.1.1l.2-.2 4-4.9a.8.8 0 0 0 0-1.1.1.1 0 0 0-.1-.1zM316 87.2c-.4 1.4-1.2 1.9-4 1.2s-3.5-1.5-3.2-3.3a.9.9 0 0 0-.6-1.1l-8.8-2.4a.8.8 0 0 0-1 .6c-2 7.2.5 10.8 11.2 13.6s15 1 17-5.8c3.8-12.8-15.5-12-14.2-16.5.4-1.4 1.1-1.9 4-1.1s3.1 1.3 2.8 3.2a.8.8 0 0 0 .6 1l8.8 2.4a.8.8 0 0 0 1-.6c1.9-7-.2-10.5-10.8-13.4s-15.2-.1-17 5.7c-3.7 12.9 15.5 12 14.2 16.5zm14.4 14.4l8.1 4a.9.9 0 0 0 1.1-.2l.1-.2 4-7.1 3 1.5c8.5 4.3 13.9 3.4 17.6-3.5s1.3-11.4-7.4-15.7l-11.8-6a.9.9 0 0 0-1.1.2l-.1.2-13.9 25.6a.7.7 0 0 0 .2 1.1h.2zm-181.5 49.9C91 213 95.5 309 158.6 365.7s161 52.9 218.8-8.7 53.4-157.4-9.7-214.2-161-52.8-218.8 8.7z" fill="none"/><path d="M375.3 397.8c1.2-1 2-2 .9-3.3s-1.5-.8-3.2.5-1.9 2-1.2 3 2.1.8 3.4-.2zm2.9 3.7c-1.3 1-1.7 2.1-.7 3.4s1.5.8 3-.4 1.9-2 1.2-3-2.2-1-3.5 0zm-28 8.9c-1.7 1-1.8 1.6-1.1 2.8s1.2 1.4 2.2.9l3.5-2c-1.8-3-2.4-3-4.6-1.7z"/><path d="M451.7 149.6C405.4 73 311.4 31.4 217 53.3 100.7 80.3 27.9 193.4 54.4 306S196.6 488.2 313 461.2 502 321 475.6 208.4a205.2 205.2 0 0 0-24-58.8zM345 74.5l11.8 6c8.6 4.2 11.4 8.2 7.4 15.6s-9.1 7.8-17.7 3.5l-3-1.5-3.9 7.2a.8.8 0 0 1-1 .5h-.2l-8-4a.8.8 0 0 1-.6-1v-.2L343.6 75a.8.8 0 0 1 1-.6l.3.2zm-43.2-3.8c1.7-5.8 6.2-8.5 16.9-5.7s12.7 6.4 10.9 13.4a1 1 0 0 1-.9.7h-.2l-8.8-2.4a.8.8 0 0 1-.6-1c.3-2-.2-2.5-2.8-3.2s-3.6-.3-4 1c-1.3 4.6 18 3.8 14.2 16.6-2 6.7-6.3 8.7-17 5.8s-13.1-6.4-11.3-13.6a1 1 0 0 1 .9-.7h.2l8.8 2.4a.8.8 0 0 1 .7 1c-.3 2 .3 2.6 3.1 3.4s3.6.2 4-1.1c1.3-4.6-17.9-3.7-14.1-16.6zm-33.7-12.2l22.7 1.5a.8.8 0 0 1 .8.8v.2l-.5 6.1a.8.8 0 0 1-.8.8h-.2l-13.4-.9-.3 3.6 13.4 1a.8.8 0 0 1 .9.7v.2l-.5 5.6a.8.8 0 0 1-.8.8h-.2l-13.4-.9-.3 3.6 13.4 1a.9.9 0 0 1 .8.8l-.5 6.1a.8.8 0 0 1-.8.8h-.2L265.6 89a.8.8 0 0 1-.9-.7V88l2.5-28.6a.8.8 0 0 1 .8-.8h.1zm-42.7 18.9c-1-8.9 1.8-16 13.3-17.5s15.6 1.3 17.1 9.8a.8.8 0 0 1-.6 1h-.1l-9.3 1.2a.8.8 0 0 1-1-.7c-.6-2.6-1.7-3.3-4.5-3s-4.4 2.8-3.8 7.8 2 7 5.5 6.5 3.9-1.4 3.7-4.6a.8.8 0 0 1 .6-1h.2l9.3-1.1a.8.8 0 0 1 1 .6v.2c.5 8.8-3 13.1-14.1 14.5s-16.2-4.6-17.3-13.7zm-48.7 33.5l-4.3-29.7a1.1 1.1 0 0 1 .6-1l12.9-5.9a.9.9 0 0 1 1.3.2L207.3 97c.5.4.4.9-.2 1.2l-9.2 4.1a1 1 0 0 1-1.2-.3l-2.9-3.7-7.3 3.3 1 4.6a1 1 0 0 1-.5 1.1l-9.2 4.1c-.6.3-1 0-1-.5zm-60 10l9.2-8.3a1.1 1.1 0 0 1 1.2-.2l18.2 9.4-4.8-4.3-8.8-9a.8.8 0 0 1-.1-1.1h.1l6.3-5.7a.8.8 0 0 1 1.1-.2l.2.2 20 21a.8.8 0 0 1 .1 1.1h-.1l-9.4 8.4a1 1 0 0 1-1.2.1l-18-9.3 4.6 4.1 9 9a.8.8 0 0 1 .1 1.1l-.2.2-6.2 5.6a.8.8 0 0 1-1.1.2l-.2-.2-20-21a.8.8 0 0 1-.1-1.1h.1zM100.8 140l6-7.6a.8.8 0 0 1 1.1-.4l.2.2 23.4 17.3a.8.8 0 0 1 .4 1.1l-.2.2-6 7.5a.8.8 0 0 1-1.1.4l-.2-.2-23.4-17.3a.8.8 0 0 1-.3-1.1zm-22.3 36.5l4.8-8.6a1 1 0 0 1 1.1-.5l12.8 3.4 8.4 2.7-7-5.3-10-8.3a1 1 0 0 1-.3-1.2l4.8-8.6c.1-.4.5-.5.9-.4l.3.2 22.2 20.6a.9.9 0 0 1 .2 1.1l-6.4 11.7a1 1 0 0 1-1.2.5l-30-6.2a.7.7 0 0 1-.7-.7.6.6 0 0 1 .1-.4zm-12 35.5l4-12.6c3-10 7-12.2 14.3-10.2 4.1 1.1 7 3.1 8 7l10.8-2c.6 0 1 .3.8 1l-2.7 8.7a1 1 0 0 1-1 .8l-9.3 1.5-.8 2.7 8 2.2a.8.8 0 0 1 .6 1l-2.5 8.2a.8.8 0 0 1-1 .6l-28.5-7.8a.8.8 0 0 1-.6-1h-.1zm26 52.4l1.4 8a.8.8 0 0 1-.6 1h-.1l-20 2.8 14.7.7 6.1.4a1.1 1.1 0 0 1 .9.8l1.3 7.7a1.1 1.1 0 0 1-.6 1l-5.6 2.6-13.2 5.3 19.3-3.8c.6-.1.9.1 1 .7l1.3 8a.8.8 0 0 1-.6 1h-.1l-29.3 5a.8.8 0 0 1-1-.6l-2.2-13.3a1 1 0 0 1 .6-1.1l5-2 11.6-3.9 3.7-1-3.8.3-12.2.2-5.4-.3a1 1 0 0 1-1-.8l-2.2-13.4a.8.8 0 0 1 .6-1h.1l29.3-5a.8.8 0 0 1 1 .6v.2zm-1-5.8l-28.9-10.4a1.1 1.1 0 0 1-.6-1l1-13.7a.9.9 0 0 1 1-1l30.2-6.4c.6-.2 1 .1.9.7l-.8 9.7a1.1 1.1 0 0 1-.9 1l-4.8.6-.6 7.8 4.7 1.4a1 1 0 0 1 .7 1l-.8 9.6c.1.4-.2.7-.6.8s-.3 0-.5-.1zM234.8 441l-1.8 6-20.2-5.7 6.3-22.3 20.2 5.7-1.7 5.8-11.5-3.2-.7 2.6 11.5 3.3-1.5 5.4-11.5-3.3-.7 2.6zm31-5.7l-9.4-.9c.1-2-.2-2.4-2.4-2.6s-2.6.2-2.7 1.2c-.4 3.6 14.9.7 13.9 10.7-.5 5.3-3.3 7.3-12.9 6.4s-12-3.5-11.4-9.6l9.4 1c-.1 1.9.3 2.4 2.7 2.6s2.6-.3 2.7-1.3c.4-3.5-14.9-.6-14-10.6.5-4.6 3.4-7.2 13-6.3s11.6 3.6 11 9.4zm28-3.3l-7.4.6 1.4 16.7-10 .8-1.4-16.7-7.4.6-.5-6.3 24.8-2zm49.6 1.9l-16.4 6.5-2.4-6 4-1.5-3.3-8.4-3 4.3-2.8-7 4.2-5 7.6-3 6.2 15.5 3.5-1.4zm16.2-8.2c-8.3 4.7-11.4 4-14.1-.9l8-4.6c.8 1.4 1.2 1.4 3.2.2s2-1.3.2-4.7a41 41 0 0 1-7.3 5c-4.7 2.6-6.4 1-8.6-2.9s-1.6-8 6.8-12.7 12-3.8 16.5 4.3 4.6 11-4.8 16.3zm24.6-16.8c-7.8 6.2-11.2 5.2-13.5 2.2a4.8 4.8 0 0 1-1.2-4.4 5.4 5.4 0 0 1 1-2 5 5 0 0 1-2.4.3 5.8 5.8 0 0 1-4-2.4c-2.3-3-2.5-6.1 5.3-12.3s10.8-5.3 13.2-2.3a5.5 5.5 0 0 1 1.4 4.4 5.8 5.8 0 0 1-.8 2.2 5.4 5.4 0 0 1 2.2-.5 4.7 4.7 0 0 1 4 2.2c2.4 3 2.6 6.5-5.2 12.6zm22.2-20.2c-6.9 7.2-10 7.4-14.6 3.1l6.6-7c1.4 1.4 2.1 1.4 3.3.2s1-2-.1-3-1.9-1-3.9 1l-6.8 7.3-9.8-9.2 15.6-16.5 4.5 4.3-9.4 10 1.4 1.2 2.4-2.5c5.9-6.3 8-7 12.6-2.6s4.1 7.4-1.8 13.7zm-29-31.8c-57.8 61.5-155.7 65.4-218.8 8.7S91 213 148.9 151.5s155.7-65.4 218.8-8.7 67.4 152.7 9.7 214.2zm.8-225.5l-17.8-13.8a.8.8 0 0 1-.2-1.1h.1L378.9 94a.8.8 0 0 1 1.1-.3l.2.2 17.8 13.7a.8.8 0 0 1 .2 1.1h-.1l-4 4.8a.8.8 0 0 1-1.1.3h-.1l-10.5-8.1-2.4 2.8 10.5 8.1a.8.8 0 0 1 .2 1.1l-.2.2-3.5 4.4a.8.8 0 0 1-1.1.3l-.2-.2-10.4-8-2.4 2.8 10.5 8a.8.8 0 0 1 .3 1.1l-.2.2-4 4.9a.8.8 0 0 1-1.1.3l-.2-.2zm6.8 6.2a.8.8 0 0 1 0-1.1h.1l22.8-18.6a.8.8 0 0 1 1.1-.2l.2.2 8 9.3c6.7 7.9 6.3 14.6-2 21.4s-15.4 6.2-22.2-1.6zm70.8 57.2c3.2 10.2 1.2 14-5.8 16.2a.8.8 0 0 1-1.1-.4l-2.7-8.5a.8.8 0 0 1 .6-1c1.9-.8 2.1-1.6 1.3-4s-1.6-3.1-3-2.7c-4.6 1.4 6.4 16.7-6.8 20.7-6.8 2-10.8-.3-14-10.7s-1.4-14.2 5.8-16.6a.8.8 0 0 1 1 .5l2.7 8.5a.9.9 0 0 1-.6 1.1c-1.7.8-2 1.7-1.1 4.4s1.7 3 3 2.6c4.6-1.4-6.3-16.6 6.8-20.6 6-1.8 10.7.3 14 10.6zm-11-24.3l-5.5 3a.9.9 0 0 1-1.1-.2l-.1-.2-6.4-11.4-3.3 1.7 6.4 11.5a.9.9 0 0 1-.2 1.1h-.2l-5 2.7a.8.8 0 0 1-1.1 0l-.2-.3-6.4-11.4-3.2 1.8 6.3 11.4a.9.9 0 0 1-.2 1.1h-.2l-5.6 3a.7.7 0 0 1-1.1-.2h-.1l-10.8-19.5a.9.9 0 0 1 .3-1.1h.1l26.1-14a.9.9 0 0 1 1.1.2l.1.2 10.8 19.4a.9.9 0 0 1-.2 1.1h-.3z"/></svg>